<svg width="297px" height="140px" viewBox="0 0 297 140" version="1.1" xmlns="http://www.w3.org/2000/svg" xmlns:xlink="http://www.w3.org/1999/xlink">
    <!-- Generator: Sketch 51.1 (57501) - http://www.bohemiancoding.com/sketch -->
    <desc>Created with Sketch.</desc>
    <defs>
        <linearGradient x1="66.8736452%" y1="50%" x2="2.22044605e-14%" y2="50%" id="linearGradient-1">
            <stop stop-color="#1BB9B9" stop-opacity="0.3" offset="0%"></stop>
            <stop stop-color="#1BB9B9" stop-opacity="0" offset="100%"></stop>
        </linearGradient>
        <rect id="path-2" x="0" y="0" width="140" height="140" rx="70"></rect>
    </defs>
    <g id="Luke_work" stroke="none" stroke-width="1" fill="none" fill-rule="evenodd">
        <g id="indes=x" transform="translate(-815.000000, -1208.000000)">
            <g id="Group-7" transform="translate(815.000000, 1228.000000)">
                <rect id="Rectangle-5" fill="url(#linearGradient-1)" x="0" y="32" width="220" height="36"></rect>
                <path d="M226.119996,3.82499735 L294.572811,46.6080068 C296.446157,47.7788481 297.01565,50.2466496 295.844808,52.1199958 C295.522885,52.6350723 295.087887,53.0700704 294.572811,53.3919932 L226.119996,96.1750026 C224.24665,97.345844 221.778848,96.7763513 220.608007,94.9030052 C220.210678,94.2672788 220,93.5326883 220,92.7830094 L220,7.21699057 C220,5.00785157 221.790861,3.21699057 224,3.21699057 C224.749679,3.21699057 225.484269,3.42766835 226.119996,3.82499735 Z" id="Rectangle-5-Copy" fill-opacity="0.5" fill="#1BB9B9"></path>
            </g>
            <g id="Page-1" transform="translate(860.000000, 1208.000000)">
                <g id="Group-6">
                    <g id="Rectangle-5-Copy-2">
                        <use fill-opacity="0.9" fill="#FFFFFF" xlink:href="#path-2"></use>
                        <use fill-opacity="0.05" fill="#4C84FF" xlink:href="#path-2"></use>
                    </g>
                    <g id="Group-8" transform="translate(38.000000, 29.000000)">
                        <text id="自动下发" font-family="PingFangSC-Regular, PingFang SC" font-size="14" font-weight="normal" fill="#1BB9B9">
                            <tspan x="4" y="78">自动下发</tspan>
                        </text>
                        <g id="Group-19" transform="translate(0.000000, 0.000400)" stroke="#1BB9B9" stroke-linecap="round" stroke-linejoin="round">
                            <path d="M40.1274,42.5 L5.5004,42.5 C2.7384,42.5 0.5004,40.261 0.5004,37.5 L0.5004,5.5 C0.5004,2.738 2.7384,0.5 5.5004,0.5 L53.5004,0.5 C56.2614,0.5 58.5004,2.738 58.5004,5.5 L58.5004,26.965" id="Stroke-2"></path>
                            <path d="M23.5,48 L23.5,44.5" id="Stroke-3"></path>
                            <path d="M35.5,44.5 L35.5,48" id="Stroke-4"></path>
                            <path d="M39.5,54 L19.5,54 C18.948,54 18.5,53.552 18.5,53 L18.5,51 C18.5,50.447 18.948,50 19.5,50 L39.5,50 C40.052,50 40.5,50.447 40.5,51 L40.5,53 C40.5,53.552 40.052,54 39.5,54 Z" id="Stroke-5"></path>
                            <path d="M26,29.5 C28.761,29.5 31,27.261 31,24.5 C31,21.738 28.761,19.5 26,19.5 L24.5,19.5 C24.5,16.186 21.813,13.5 18.5,13.5 C15.187,13.5 12.5,16.186 12.5,19.5 L11,19.5 C8.239,19.5 6,21.738 6,24.5 C6,27.261 8.239,29.5 11,29.5 L26,29.5 Z" id="Stroke-6"></path>
                            <polyline id="Stroke-7" points="16.5 21 26.5 11 36.5 11"></polyline>
                            <polygon id="Stroke-8" points="39.5 12.5 49.5 12.5 49.5 9.5 39.5 9.5"></polygon>
                            <polygon id="Stroke-9" points="39.5 23.333 49.5 23.333 49.5 20.333 39.5 20.333"></polygon>
                            <path d="M22.5,21.833 L36.5,21.833" id="Stroke-10"></path>
                            <path d="M0.5,36.5 L39.653,36.5" id="Stroke-11"></path>
                            <path d="M63.5,38.5 C63.5,44.574 58.575,49.5 52.5,49.5 C46.425,49.5 41.5,44.574 41.5,38.5 C41.5,32.425 46.425,27.5 52.5,27.5 C58.575,27.5 63.5,32.425 63.5,38.5 Z" id="Stroke-12"></path>
                            <path d="M61.5,38.5 C61.5,43.47 57.471,47.5 52.5,47.5 C47.529,47.5 43.5,43.47 43.5,38.5 C43.5,33.529 47.529,29.5 52.5,29.5" id="Stroke-13"></path>
                            <path d="M54.5,29.7227 C54.841,29.7997 55.174,29.8967 55.5,30.0117" id="Stroke-14"></path>
                            <path d="M56.5,38.5 C56.5,40.709 54.709,42.5 52.5,42.5 C50.291,42.5 48.5,40.709 48.5,38.5 C48.5,36.29 50.291,34.5 52.5,34.5 C54.709,34.5 56.5,36.29 56.5,38.5 Z" id="Stroke-15"></path>
                            <path d="M55.5,13.5 L55.5,6 C55.5,4.619 54.381,3.5 53,3.5 L45.5,3.5" id="Stroke-16"></path>
                            <path d="M61.5,6 L61.5,5" id="Stroke-17"></path>
                            <path d="M61.5,27 L61.5,8" id="Stroke-18"></path>
                        </g>
                    </g>
                </g>
            </g>
        </g>
    </g>
</svg>