
<svg width="24px" height="24px" viewBox="0 0 24 24" version="1.1" xmlns="http://www.w3.org/2000/svg" xmlns:xlink="http://www.w3.org/1999/xlink">
    <!-- Generator: Sketch 49.3 (51167) - http://www.bohemiancoding.com/sketch -->
    <desc>Created with Sketch.</desc>
    <defs></defs>
    <g id="Migration-Analysis" stroke="none" stroke-width="1" fill="none" fill-rule="evenodd">
        <g id="TIBC-Journey-02" transform="translate(-1495.000000, -528.000000)">
            <rect id="block" fill="#353F45" x="1495" y="528" width="24" height="24"></rect>
            <path d="M1507.70725,540.00025 L1511.85325,535.85425 C1512.04925,535.65825 1512.04925,535.34225 1511.85325,535.14625 C1511.65825,534.95125 1511.34225,534.95125 1511.14625,535.14625 L1507.00025,539.29325 L1502.85325,535.14625 C1502.65825,534.95125 1502.34225,534.95125 1502.14625,535.14625 C1501.95125,535.34225 1501.95125,535.65825 1502.14625,535.85425 L1506.29325,540.00025 L1502.14625,544.14625 C1501.95125,544.34225 1501.95125,544.65825 1502.14625,544.85425 C1502.24425,544.95125 1502.37225,545.00025 1502.50025,545.00025 C1502.62825,545.00025 1502.75625,544.95125 1502.85325,544.85425 L1507.00025,540.70725 L1511.14625,544.85425 C1511.24425,544.95125 1511.37225,545.00025 1511.50025,545.00025 C1511.62825,545.00025 1511.75625,544.95125 1511.85325,544.85425 C1512.04925,544.65825 1512.04925,544.34225 1511.85325,544.14625 L1507.70725,540.00025 Z" id="Fill-1" fill="#FFFFFF"></path>
        </g>
    </g>
</svg>